<?xml version="1.0" encoding="utf-8"?><!-- Uploaded to: SVG Repo, www.svgrepo.com, Generator: SVG Repo Mixer Tools -->
<svg fill="" width="800px" height="800px" viewBox="0 0 24 24" xmlns="http://www.w3.org/2000/svg" xml:space="preserve">
<defs>
    <linearGradient id="gradient" x1="0%" y1="0%" x2="0%" y2="50%">
            <stop offset="0%" style="stop-color:#00d6a2;stop-opacity:1" />
            <stop offset="100%" style="stop-color:#102e5a;stop-opacity:1" />
        </linearGradient>
</defs>
<path fill-rule="evenodd" clip-rule="evenodd" d="M12 6.036c-2.667 0-4.333 1.325-5 3.976 1-1.325 2.167-1.822 3.5-1.491.761.189 1.305.738 1.906 1.345C13.387 10.855 14.522 12 17 12c2.667 0 4.333-1.325 5-3.976-1 1.325-2.166 1.822-3.5 1.491-.761-.189-1.305-.738-1.907-1.345-.98-.99-2.114-2.134-4.593-2.134zM7 12c-2.667 0-4.333 1.325-5 3.976 1-1.326 2.167-1.822 3.5-1.491.761.189 1.305.738 1.907 1.345.98.989 2.115 2.134 4.594 2.134 2.667 0 4.333-1.325 5-3.976-1 1.325-2.167 1.822-3.5 1.491-.761-.189-1.305-.738-1.906-1.345C10.613 13.145 9.478 12 7 12z" fill="url(#gradient)"/></svg>